<?xml version="1.0" encoding="UTF-8"?>
<svg xmlns="http://www.w3.org/2000/svg" width="128" height="128"
     viewBox="0 0 128 128">
  <path fill-rule="nonzero" fill="rgb(15.294118%, 45.882353%, 79.215686%)" fill-opacity="1"
        d="M 64 128 C 99.46875 128 128 99.46875 128 64 C 128 28.53125 99.46875 0 64 0 C 28.53125 0 0 28.53125 0 64 C 0 99.46875 28.53125 128 64 128 Z M 64 128 " />
  <path fill-rule="nonzero" fill="rgb(100%, 100%, 100%)" fill-opacity="1"
        d="M 81.601562 74.132812 C 81.601562 64.800781 76 61.601562 64.800781 60.265625 C 56.800781 59.199219 55.199219 57.066406 55.199219 53.332031 C 55.199219 49.597656 57.867188 47.199219 63.199219 47.199219 C 68 47.199219 70.667969 48.800781 72 52.800781 C 72.265625 53.601562 73.066406 54.132812 73.867188 54.132812 L 78.132812 54.132812 C 79.199219 54.132812 80 53.332031 80 52.265625 L 80 52 C 78.933594 46.132812 74.132812 41.601562 68 41.066406 L 68 34.667969 C 68 33.601562 67.199219 32.800781 65.867188 32.53125 L 61.867188 32.53125 C 60.800781 32.53125 60 33.332031 59.734375 34.667969 L 59.734375 40.800781 C 51.734375 41.867188 46.667969 47.199219 46.667969 53.867188 C 46.667969 62.667969 52 66.132812 63.199219 67.46875 C 70.667969 68.800781 73.066406 70.398438 73.066406 74.667969 C 73.066406 78.933594 69.332031 81.867188 64.265625 81.867188 C 57.332031 81.867188 54.933594 78.933594 54.132812 74.933594 C 53.867188 73.867188 53.066406 73.332031 52.265625 73.332031 L 47.734375 73.332031 C 46.667969 73.332031 45.867188 74.132812 45.867188 75.199219 L 45.867188 75.46875 C 46.933594 82.132812 51.199219 86.933594 60 88.265625 L 60 94.667969 C 60 95.734375 60.800781 96.53125 62.132812 96.800781 L 66.132812 96.800781 C 67.199219 96.800781 68 96 68.265625 94.667969 L 68.265625 88.265625 C 76.265625 86.933594 81.601562 81.332031 81.601562 74.132812 Z M 81.601562 74.132812 " />
  <path fill-rule="nonzero" fill="rgb(100%, 100%, 100%)" fill-opacity="1"
        d="M 50.398438 102.132812 C 29.601562 94.667969 18.933594 71.46875 26.667969 50.933594 C 30.667969 39.734375 39.46875 31.199219 50.398438 27.199219 C 51.46875 26.667969 52 25.867188 52 24.53125 L 52 20.800781 C 52 19.734375 51.46875 18.933594 50.398438 18.667969 C 50.132812 18.667969 49.601562 18.667969 49.332031 18.933594 C 24 26.933594 10.132812 53.867188 18.132812 79.199219 C 22.933594 94.132812 34.398438 105.601562 49.332031 110.398438 C 50.398438 110.933594 51.46875 110.398438 51.734375 109.332031 C 52 109.066406 52 108.800781 52 108.265625 L 52 104.53125 C 52 103.734375 51.199219 102.667969 50.398438 102.132812 Z M 78.667969 18.933594 C 77.601562 18.398438 76.535156 18.933594 76.265625 20 C 76 20.265625 76 20.53125 76 21.066406 L 76 24.800781 C 76 25.867188 76.800781 26.933594 77.601562 27.46875 C 98.398438 34.933594 109.066406 58.132812 101.332031 78.667969 C 97.332031 89.867188 88.535156 98.398438 77.601562 102.398438 C 76.535156 102.933594 76 103.734375 76 105.066406 L 76 108.800781 C 76 109.867188 76.535156 110.667969 77.601562 110.933594 C 77.867188 110.933594 78.398438 110.933594 78.667969 110.667969 C 104 102.667969 117.867188 75.734375 109.867188 50.398438 C 105.066406 35.199219 93.332031 23.734375 78.667969 18.933594 Z M 78.667969 18.933594 " />
</svg>
